<?xml version="1.0" encoding="utf-8"?>
<!-- Generator: Adobe Illustrator 18.0.0, SVG Export Plug-In . SVG Version: 6.00 Build 0)  -->
<!DOCTYPE svg PUBLIC "-//W3C//DTD SVG 1.1//EN" "http://www.w3.org/Graphics/SVG/1.1/DTD/svg11.dtd">
<svg version="1.1" id="Layer_1" xmlns="http://www.w3.org/2000/svg" xmlns:xlink="http://www.w3.org/1999/xlink" x="0px" y="0px"
	 viewBox="0 0 1080 1080" enable-background="new 0 0 1080 1080" xml:space="preserve">
<g id="_x23_000000ff">
	<path d="M510.1,0h60.2c2.6,1.6,5.8,1.1,8.7,1.4C662.5,7.2,744.5,33,816.3,75.9c62.8,37.4,117.9,87.8,160.9,147
		c48.8,67,81.8,145.3,95.4,227.1c4.1,23.5,6,47.3,7.5,71v37.5c-1.6,27.6-4.1,55.2-9.4,82.4c-14.8,78.5-47.5,153.6-94.7,217.9
		c-46,62.8-105.6,115.5-173.6,153.3c-67,37.4-142,60-218.4,66.1c-4.6,0.7-9.4-0.1-13.8,1.8h-60.3c-0.7-0.2-2.1-0.8-2.8-1
		c-49.1-2.9-97.8-12.6-144.2-28.8c-55.1-19.1-107-47.3-153.1-83c-57.5-44.5-106-100.8-141.4-164.3C36,745.2,14.5,681.6,5.3,616.2
		c-2.5-18.7-4.6-37.4-4.7-56.3L0,564.5v-43.4c1.6-27.5,4.1-54.9,9.4-82c15.4-82.2,50.6-160.6,101.5-227
		c47-61.6,107.5-112.9,175.9-149.2c67.5-36,142.8-57.2,219.2-61.8C507.4,0.9,508.8,0.5,510.1,0 M506,304c0,67.3,0,134.7,0,202
		c-64.7,0-129.4,0-194,0c-4.7,0-9.5-0.2-14.1,0.6c-10.6,1.9-20,9.2-24.6,18.9c-5.2,10.8-4,24.4,3.1,34.2
		c6.2,8.8,16.8,14.3,27.6,14.3c67.3,0.1,134.7,0,202,0c0,67.3,0,134.7,0,202c0,11.8,6.5,23.3,16.7,29.2c11.3,6.9,26.6,6.2,37.2-1.8
		c8.7-6.2,14.1-16.8,14-27.5c0.1-67.3,0-134.6,0-202c66.7,0,133.4,0,200.1,0c5.4,0.1,10.8-0.7,15.8-3c14-6,22.6-22.1,19.6-37
		c-2.5-15.8-17.4-28.2-33.4-27.9c-67.3,0-134.7,0-202,0c0-67,0-134,0-201c0-6.3-1.5-12.7-4.7-18.1c-7-12.3-22.3-19.2-36.1-16.1
		C517.8,273.6,505.8,288.3,506,304z"/>
</g>
</svg>
