<?xml version="1.0" encoding="utf-8"?>
<!-- Generator: Adobe Illustrator 18.0.0, SVG Export Plug-In . SVG Version: 6.00 Build 0)  -->
<!DOCTYPE svg PUBLIC "-//W3C//DTD SVG 1.1//EN" "http://www.w3.org/Graphics/SVG/1.1/DTD/svg11.dtd">
<svg version="1.1" id="Layer_1" xmlns="http://www.w3.org/2000/svg" xmlns:xlink="http://www.w3.org/1999/xlink" x="0px" y="0px"
	 viewBox="0 0 911 911" enable-background="new 0 0 911 911" xml:space="preserve">
<g id="_x23_000000ff">
	<path d="M193.8,0h523.5c19,0.4,38.1,2.7,56.4,8.3c34.7,10.3,66.2,30.8,89.9,58.1c22.2,25.2,37.3,56.4,43.8,89.3
		c2,9.6,2.7,19.4,3.5,29.2v541c-1.7,37.4-14.1,74.5-36.3,104.8c-26.9,37.4-67.5,64.8-112.5,75c-13.8,3.5-28,4.5-42.1,5.3H197.3
		c-18.3-0.3-36.6-1.9-54.3-6.8c-32.7-8.7-63-26.3-86.8-50.5C30,827.5,11.7,793.4,4.4,757c-3.1-14.1-3.7-28.5-4.4-42.9v-516
		c0.3-19.4,2.2-39,7.6-57.7C18.4,101.9,41.7,67,73.1,42.1c29.8-23.8,66.9-38.5,105-41.3C183.3,0.4,188.6,0.5,193.8,0 M182.5,51.8
		c-33.3,2.3-65.4,17.1-89.1,40.6c-20.6,20.5-34.8,47.4-39.7,76c-2.7,14-2,28.4-2.1,42.6c0,169,0,338,0,506.9
		c-0.2,36.6,14.6,73,40.3,99c20.5,20.9,47.4,35.3,76.2,40.3c12.5,2.4,25.2,2.2,37.8,2.2c161.3,0.1,322.6,0,484,0
		c11.3-0.1,22.7,0.1,34-0.1c30.4-1,60.2-12.5,83.8-31.6c31.4-25.2,50.8-64.5,52.1-104.7c0.1-12.4,0-24.7,0.1-37
		c0-157.7,0-315.4,0-473.1c-0.1-15.3,0.7-30.8-2.2-45.9c-6.1-32.6-24-63-49.8-83.8C783,62.8,751,51.5,719,51.4
		c-171.6,0-343.3,0-514.9,0C196.9,51.4,189.7,51.3,182.5,51.8z"/>
	<path d="M442.6,228.6c8.9-4.7,20.3-4.2,28.8,1.2c8.1,5.1,13.4,14.6,13.4,24.2c0.1,43.8,0,87.6,0.1,131.4
		c30.6-30.2,60.9-60.8,91.3-91.2c5.9-6.7,14.9-10.7,23.8-10.1c12.4,0.5,23.8,9.9,26.4,22c2.6,10-1.1,20.9-8.3,28
		c-30.8,30.7-61.7,61.4-92.3,92.3c44.1,0.2,88.1-0.1,132.2,0.2c13.4,0.1,25.7,11,27.6,24.3c2,11.2-3.6,23.3-13.3,29.2
		c-4.8,3.2-10.6,4.2-16.3,4.3c-43.4,0.1-86.8,0-130.2,0.1c31,31.3,62.3,62.3,93.4,93.4c6.5,6.4,9.1,16.1,7.6,25
		c-1.5,9.8-8.6,18.4-17.9,21.8c-10.3,4.1-22.8,1.8-30.6-6c-31.2-31-62-62.3-93.4-93.1c-0.2,43.5-0.1,86.9-0.2,130.4
		c0.6,13.7-10.2,26.9-23.7,29.1c-9.8,1.9-20.3-1.8-26.9-9.1c-4.5-4.9-7-11.5-7.4-18c0-44.1,0-88.2,0-132.3
		c-29.6,29.2-58.8,58.7-88.2,88c-3.4,3.2-6.4,7.1-10.6,9.3c-9.1,5.6-21.5,5.4-30.4-0.5c-9.6-6.1-14.9-18.1-12.7-29.3
		c1.1-6.3,4.5-12,8.9-16.4c27.5-27.5,55-55,82.5-82.5c3.2-3.3,6.6-6.4,9.6-9.8c-43.3,0.4-86.5,0-129.8,0.1
		c-9.5,0.4-19.3-3.9-24.9-11.8c-6.7-8.9-7.5-21.7-2-31.4c5-9.2,15.4-15,25.8-14.8c43.6,0,87.2-0.1,130.8,0.1
		c-28.7-29.1-57.8-57.8-86.6-86.8c-3.1-3.2-6.5-6.1-9.2-9.7c-5.4-7-7-16.6-4.6-25c2.5-8.4,8.8-15.7,17-18.9
		c10.4-4.3,23.1-1.9,31,6.1c31.2,30.9,62.1,62.3,93.4,93.1c0-43.8,0-87.6,0.1-131.4C426.8,243.5,433.1,233.2,442.6,228.6z"/>
</g>
</svg>
