<?xml version="1.0" encoding="utf-8"?>
<!-- Generator: Adobe Illustrator 18.0.0, SVG Export Plug-In . SVG Version: 6.00 Build 0)  -->
<!DOCTYPE svg PUBLIC "-//W3C//DTD SVG 1.1//EN" "http://www.w3.org/Graphics/SVG/1.1/DTD/svg11.dtd">
<svg version="1.1" id="Layer_1" xmlns="http://www.w3.org/2000/svg" xmlns:xlink="http://www.w3.org/1999/xlink" x="0px" y="0px"
	 viewBox="0 0 755 720" enable-background="new 0 0 755 720" xml:space="preserve">
<g id="_x23_ffffffff">
</g>
<g id="_x23_000000ff">
	<path d="M165.2,4.3c3.2-0.2,6.5-0.3,9.7-0.3C306.3,4,437.7,4,569,4c11.7,0.1,23.4-0.4,35.1,1.2c32.9,4.1,64.3,19.6,87.6,43.2
		c23.6,23.6,39,55.3,42.8,88.5c1.4,10.6,1,21.4,1,32.1c0,132.3,0,264.7,0,397c0,35.6-13.2,71-36.6,97.9
		c-27.6,32.2-69.4,51.8-111.9,52.1c-132.3,0.1-264.6,0-397,0c-11.7-0.1-23.5,0.4-35.1-1.2c-33.2-4.1-64.7-19.8-88.1-43.6
		c-23.4-23.6-38.6-55-42.3-88c-1.4-10.6-1-21.4-1-32.1c0-132.3,0-264.7,0-397c0-28.7,8.5-57.3,24.2-81.4C64,47.5,88,27.4,115.7,15.7
		C131.4,9.1,148.2,5.2,165.2,4.3 M364.5,185.6c-5,4.3-8,10.8-8,17.4c0,34,0,68,0,102.1c-24.1-24.1-48.2-48.2-72.3-72.3
		c-6.2-6.5-16.5-8.7-24.8-5.1c-7.2,2.9-12.6,9.7-13.8,17.4c-1.2,7.1,1.3,14.7,6.5,19.7c24.1,24.1,48.2,48.2,72.3,72.3
		c-34.2,0-68.4,0-102.6,0c-8.7,0.1-16.9,5.7-20.4,13.6c-3.4,7.3-2.5,16.2,2.2,22.7c4.3,6.1,11.7,9.9,19.2,9.7c33.9,0,67.7,0,101.6,0
		c-23.1,23.1-46.2,46.2-69.3,69.3c-2.5,2.5-5.3,5-7,8.2c-3.7,6.5-3.8,14.8-0.3,21.4c3.3,6.4,9.8,11.1,16.9,12c7,1,14.4-1.5,19.3-6.6
		c24.1-24.1,48.2-48.2,72.3-72.3c0,32.3,0,64.7,0,97c0,3.6-0.2,7.2,0.7,10.7c1.6,6.4,6.2,12,12.2,15c6.9,3.5,15.6,3.1,22.1-1.1
		c6.7-4.1,11.1-11.8,11-19.6c0-34,0-68,0-102c24.3,24.3,48.5,48.6,72.9,72.8c6,5.9,15.5,7.9,23.4,4.9c7.2-2.6,12.9-9.1,14.3-16.7
		c1.6-7.4-0.9-15.5-6.4-20.7c-24.1-24.1-48.2-48.2-72.3-72.3c34.2,0,68.4,0,102.6,0c12.1,0,22.7-10.9,22.4-23
		c0.1-9.4-6.2-18.4-15.1-21.6c-4.6-1.8-9.6-1.4-14.5-1.4c-31.8,0-63.7,0-95.5,0c24.3-24.3,48.6-48.5,72.8-72.8
		c5.4-5.4,7.5-13.8,5.6-21.2c-1.8-7.6-8-14-15.5-16.2c-7.4-2.2-15.9-0.4-21.6,4.9c-24.5,24.4-48.9,48.9-73.3,73.3c0-34,0-68,0-102
		c0.1-9.2-5.9-18-14.4-21.4C380.3,178.4,370.8,180,364.5,185.6z"/>
</g>
</svg>
