<?xml version="1.0" encoding="utf-8"?>
<!-- Generator: Adobe Illustrator 18.0.0, SVG Export Plug-In . SVG Version: 6.00 Build 0)  -->
<!DOCTYPE svg PUBLIC "-//W3C//DTD SVG 1.1//EN" "http://www.w3.org/Graphics/SVG/1.1/DTD/svg11.dtd">
<svg version="1.1" id="Layer_1" xmlns="http://www.w3.org/2000/svg" xmlns:xlink="http://www.w3.org/1999/xlink" x="0px" y="0px"
	 viewBox="0 0 1080 1080" enable-background="new 0 0 1080 1080" xml:space="preserve">
<g id="_x23_000000ff">
	<path d="M510.1,0h60.2c0.7,0.3,2.1,0.8,2.8,1c84.5,4.9,167.7,30.3,240.5,73.3c64,37.6,120,88.6,163.6,148.6
		c62.1,85.3,98.6,189.3,102.2,294.8l0.7-4.2v47.1c-1.3,13.4-1.7,27-3.4,40.3c-9.3,83.5-38.6,164.7-84.8,234.8
		c-40.6,61.9-94,115.3-155.9,155.9c-74.4,49-161.1,78.9-249.9,86.3c-5.4,0.8-11,0.1-16.2,1.9h-60.2c-0.7-0.2-2.1-0.8-2.8-1
		c-49.1-2.9-97.8-12.6-144.2-28.8c-53.5-18.5-104-45.7-149-79.9c-56-42.5-103.6-96-139.3-156.6C31.1,740.5,5.7,656.8,1,572
		c-0.1-2.4-0.2-7.3-0.3-9.8L0,566.4v-46.7c0.2-2.2,0.6-6.6,0.8-8.8c1.8-33.8,6.7-67.5,14.8-100.4c18.7-76.1,54.4-148,103.6-209
		c48.6-60.4,110.2-110.1,179.5-144.7C363.2,24.5,434.1,5.4,506.1,1.1C507.4,0.9,508.8,0.5,510.1,0 M701.8,379.1
		c-81.9,104.8-163.7,209.6-245.6,314.3c-38.6-35.9-77.1-71.9-115.7-107.9c-7.2-6.8-17.5-10.1-27.3-8.9
		c-12.7,1.3-24.1,10.4-28.4,22.4c-3.8,10.4-2.2,22.6,4.3,31.6c2.7,3.9,6.4,7,9.9,10.2c43.8,40.8,87.5,81.6,131.3,122.4
		c4,3.6,7.6,7.7,12.3,10.4c10.4,6.2,24.1,6.4,34.6,0.4c5.7-3,9.9-8,13.7-13.1C578,649.3,665.2,537.7,752.4,426.1
		c2.5-3.3,5.2-6.5,7.2-10.1c5.1-9.6,5.2-21.6,0.3-31.3c-5.5-11.2-17.4-18.9-29.9-19C719.1,365.2,708.3,370.5,701.8,379.1z"/>
</g>
</svg>
