<?xml version="1.0" encoding="utf-8"?>
<!-- Generator: Adobe Illustrator 18.0.0, SVG Export Plug-In . SVG Version: 6.00 Build 0)  -->
<!DOCTYPE svg PUBLIC "-//W3C//DTD SVG 1.1//EN" "http://www.w3.org/Graphics/SVG/1.1/DTD/svg11.dtd">
<svg version="1.1" id="Layer_1" xmlns="http://www.w3.org/2000/svg" xmlns:xlink="http://www.w3.org/1999/xlink" x="0px" y="0px"
	 viewBox="0 0 1080 1080" enable-background="new 0 0 1080 1080" xml:space="preserve">
<g id="_x23_000000ff">
	<path d="M510.1,0h60.3c2.6,1.7,5.8,1.1,8.7,1.4C662,7.2,743.5,32.7,814.9,75.1c62.6,37,117.5,86.8,160.5,145.4
		c32,43.5,57.4,91.8,75.1,142.9c16.8,48.6,26.6,99.6,28.9,150.9l0,7.1l0.7-4.8v40.5c-1.4,28.3-4.1,56.7-9.6,84.5
		c-15.5,82-50.6,160.1-101.4,226.2c-45.3,59.2-102.9,108.9-168.1,145c-69.5,38.5-147.7,61.3-227,66c-1.4,0.2-2.7,0.6-4,1.1h-60.2
		c-0.7-0.3-2.1-0.8-2.8-1c-50.7-3-100.9-13.3-148.7-30.3c-51.8-18.5-100.7-45-144.5-78.3c-55.8-42.4-103.3-95.6-138.9-156
		C31.8,741.8,6.4,659.1,1.1,575.1c-0.3-5.6-0.7-11.1-0.6-16.7L0,563.2v-40.5c1.8-37.1,6.3-74.2,15.2-110.4
		C33.7,335.5,69.6,263,119.3,201.5c51.2-63.7,117-115.6,191-150.3c61.3-28.9,128.1-46,195.8-50.1C507.4,0.9,508.8,0.5,510.1,0
		 M501.5,70.9C465,73.8,429,81,394.2,92.4c-72,23.4-138.1,64.6-190.9,118.8c-55.7,56.9-96.6,128-117.4,204.9
		c-15,54.8-19.7,112.3-14.4,168.8c8,86.9,41.1,171.2,94.2,240.5c41.5,54.5,95,99.7,155.6,131.5c51.6,27.2,108.5,44.6,166.5,51
		c54.8,6,110.7,2.6,164.3-10.5c77.2-18.7,149.2-57.6,207.4-111.6c58.8-54.3,103.5-123.8,128.2-199.9c33-100.9,30.5-213.1-7.3-312.4
		c-25.7-68-67.5-129.8-120.9-179.1C801.5,140.6,729.8,101.8,653,83C603.6,70.8,552.2,66.8,501.5,70.9z"/>
	<path d="M707.4,373.2c9.3-7.7,22.7-9.8,33.9-5.4c11.1,4.2,19.7,14.4,21.6,26.1c1.8,9.5-0.8,19.7-6.8,27.3
		C666.6,535.9,577,650.7,487.3,765.4c-11.4,15.2-35.7,17.5-49.8,4.8c-48.1-44.8-96.2-89.6-144.2-134.4c-11.5-10.5-14-29.1-5.9-42.4
		c5-8.6,13.9-14.8,23.7-16.5c10.4-2,21.6,1.4,29.4,8.6c38.6,35.9,77.1,71.9,115.7,107.8c80.2-102.4,160.2-205,240.3-307.5
		C699.9,381.5,703,376.7,707.4,373.2z"/>
</g>
</svg>
