<?xml version="1.0" encoding="utf-8"?>
<!-- Generator: Adobe Illustrator 18.0.0, SVG Export Plug-In . SVG Version: 6.00 Build 0)  -->
<!DOCTYPE svg PUBLIC "-//W3C//DTD SVG 1.1//EN" "http://www.w3.org/Graphics/SVG/1.1/DTD/svg11.dtd">
<svg version="1.1" id="Layer_1" xmlns="http://www.w3.org/2000/svg" xmlns:xlink="http://www.w3.org/1999/xlink" x="0px" y="0px"
	 viewBox="0 0 904 848" enable-background="new 0 0 904 848" xml:space="preserve">
<g id="_x23_ffffffff">
</g>
<g id="_x23_000000ff">
	<path d="M189.5,5.6C194.6,5.2,199.8,5,205,5c155.7,0,311.3,0,467,0c11.3,0,22.7-0.3,34,1c34.5,3.5,67.7,17.6,94.3,39.7
		c35.1,28.9,58.4,71.8,63.1,117.1c1.5,12.4,1,24.8,1.1,37.2c0,155.7,0,311.3,0,467c-0.1,37.2-12.4,74.1-34.5,104
		c-27.1,37-69,62.7-114.4,69.8c-17,3-34.4,2.1-51.6,2.2c-153.7,0-307.3,0-461,0c-35.6,0-71.2-11.2-100.4-31.6
		C64.2,784.9,37,742.7,29.2,696.6c-3.7-19.7-2.5-39.7-2.7-59.6c0-151.7,0-303.3,0-455c0-31.7,8.6-63.4,25-90.6
		C67.2,65,89.9,42.8,116.7,27.8C139,15.2,164,7.6,189.5,5.6 M253.4,212.6c-5.8,1.2-11,4.5-14.8,9c-7.1,8.2-8.1,21-2.5,30.2
		c4.6,8,13.6,13.2,22.8,13.1c123.7,0,247.4,0,371.1,0c13.2,0.3,25.3-10.8,26.3-24c1.2-11.1-5.5-22.4-15.7-26.8
		c-5.8-2.8-12.4-2.2-18.7-2.3c-120.7,0-241.4,0-362,0C257.8,212,255.5,212.1,253.4,212.6 M253.4,335.6c-8.1,1.7-15.2,7.5-18.6,15.1
		c-2.9,6.5-3,14.2-0.3,20.8c3.1,7.7,10.1,13.7,18.1,15.7c4,1,8.2,0.7,12.4,0.8c121.7,0,243.4,0,365.1,0c10.8,0.2,21.1-7.1,24.7-17.2
		c3.2-8.5,1.7-18.6-4-25.6c-4.9-6.3-12.8-10.2-20.8-10.2c-123.4,0-246.7,0-370.1,0C257.8,335,255.5,335.1,253.4,335.6 M253.4,459.6
		c-12.4,2.4-21.9,14.8-20.8,27.4c0.5,12.8,11.5,24.2,24.4,24.9c7.7,0.2,15.4,0,23.1,0.1c116.7,0,233.4,0,350.1,0
		c13.9,0.3,26.5-12,26.4-26c0.7-14.3-12.1-27.4-26.4-27c-123.4,0-246.7,0-370.1,0C257.8,459,255.5,459.1,253.4,459.6 M253.4,583.6
		c-12.8,2.5-22.3,15.5-20.8,28.4c1,13.2,13.1,24.3,26.3,24c123.7,0,247.4,0,371.1,0c14.3,0.4,27.1-12.7,26.4-27
		c0.1-13.9-12.5-26.3-26.4-26c-123.4,0-246.7,0-370.1,0C257.8,583,255.5,583.1,253.4,583.6z"/>
</g>
</svg>
