<?xml version="1.0" encoding="utf-8"?>
<!-- Generator: Adobe Illustrator 18.0.0, SVG Export Plug-In . SVG Version: 6.00 Build 0)  -->
<!DOCTYPE svg PUBLIC "-//W3C//DTD SVG 1.1//EN" "http://www.w3.org/Graphics/SVG/1.1/DTD/svg11.dtd">
<svg version="1.1" id="Layer_1" xmlns="http://www.w3.org/2000/svg" xmlns:xlink="http://www.w3.org/1999/xlink" x="0px" y="0px"
	 viewBox="0 0 869 846" enable-background="new 0 0 869 846" xml:space="preserve">
<g id="_x23_ffffffff">
</g>
<g id="_x23_000000ff">
	<path d="M177.6,4.8C188,3.8,198.5,4,209,4c154.3,0,308.7,0,463,0c15.8-0.3,31.7,1,47.1,4.7c33.3,7.8,64.2,25.6,87.7,50.4
		c23.3,24.5,39.4,55.7,45.6,89c3.4,16.7,3.2,33.9,3.1,50.8c0,149.3,0,298.7,0,448c-0.1,12.9,0.4,25.9-1.2,38.8
		c-4.2,36.2-20,71-44.6,98c-32.6,36.4-80.8,58.1-129.7,58.3c-161.7,0-323.3,0-485,0c-33.6,0.1-67.1-9.5-95.4-27.6
		c-27.4-17.4-49.9-42.5-64.2-71.8c-11.8-24.1-18-50.8-17.9-77.6c0-156.3,0-312.7,0-469c0-11-0.3-22.1,0.9-33.1
		c3.4-34.1,17.1-67.1,38.8-93.6C86.7,33,131,9.1,177.6,4.8 M179.6,51.9c-33,3.7-64.2,20.7-85.2,46.4c-19.1,23-29.9,52.8-29.8,82.7
		c0,156.7,0,313.4,0,470.1c0,10.3-0.3,20.6,1.1,30.8c3.6,28.5,17.2,55.7,37.8,75.8c23.8,23.6,57,37.4,90.6,37.4c153,0,306,0,459,0
		c16.4-0.3,32.9,1,49.1-2.2c30.1-5.4,57.9-22,77.2-45.7c18.8-22.9,29.4-52.5,29.3-82.1c0-161.3,0-322.7,0-484
		c0.1-28.3-9.5-56.5-26.8-78.9C762.2,76.4,732.8,58.4,701,53c-15.5-2.9-31.3-1.7-47-2c-153,0-306,0-459.1,0
		C189.8,51,184.7,51.3,179.6,51.9z"/>
	<path d="M243.5,211.8c4.1-1.1,8.3-0.8,12.5-0.8c121.7,0,243.3,0,365,0c9-0.1,17.8,4.9,22.5,12.5c5.8,9.1,5.2,21.8-1.6,30.2
		c-4.9,6.4-12.8,10.3-20.9,10.2c-123.7,0-247.4,0-371,0c-13.3,0.3-25.4-10.9-26.3-24.1C222.2,227.3,231.2,214.7,243.5,211.8z"/>
	<path d="M243.5,334.8c4.4-1.1,8.9-0.7,13.4-0.8c120.7,0,241.4,0,362.1,0c5.1-0.2,10.3,0.8,14.7,3.3c10,5.4,15.7,17.6,13.1,28.8
		c-2.3,11.9-13.8,21.2-25.9,20.9c-123.7,0-247.4,0-371,0c-13.3,0.3-25.4-10.9-26.4-24.1C222.2,350.3,231.2,337.7,243.5,334.8z"/>
	<path d="M243.6,458.8c4.1-1.1,8.3-0.8,12.5-0.8c121.7,0,243.3,0,365,0c9-0.1,17.8,4.9,22.5,12.6c5.8,9.1,5.1,21.8-1.7,30.2
		c-4.9,6.4-12.8,10.3-20.8,10.2c-117,0-234,0-351,0c-7.4-0.1-14.8,0.1-22.2-0.1c-12.8-0.8-23.9-12.1-24.3-25
		C222.6,473.6,231.6,461.6,243.6,458.8z"/>
	<path d="M244.4,582.6c2.2-0.5,4.4-0.6,6.6-0.6c123.3,0,246.7,0,370,0c9-0.1,17.7,4.8,22.4,12.4c5.9,9.1,5.3,21.9-1.6,30.4
		C637,631.2,629,635.1,621,635c-116,0-232,0-348,0c-8.4-0.1-16.7,0.1-25.1-0.1c-12.8-0.7-23.9-12.1-24.4-25
		C222.6,597.3,232,585,244.4,582.6z"/>
</g>
</svg>
