<?xml version="1.0" encoding="utf-8"?>
<!-- Generator: Adobe Illustrator 18.0.0, SVG Export Plug-In . SVG Version: 6.00 Build 0)  -->
<!DOCTYPE svg PUBLIC "-//W3C//DTD SVG 1.1//EN" "http://www.w3.org/Graphics/SVG/1.1/DTD/svg11.dtd">
<svg version="1.1" id="Layer_1" xmlns="http://www.w3.org/2000/svg" xmlns:xlink="http://www.w3.org/1999/xlink" x="0px" y="0px"
	 viewBox="0 0 887 846" enable-background="new 0 0 887 846" xml:space="preserve">
<g id="_x23_ffffffff">
</g>
<g id="_x23_000000ff">
	<path d="M180.6,4.8C191,3.8,201.5,4,212,4C357.7,4,503.4,4,649,4c20,0.3,40.2-1.1,60.1,2.2c31.7,4.9,61.9,18.8,86.3,39.5
		c23.5,19.8,41.8,45.8,52.4,74.7c7.2,19.7,10.8,40.7,10.7,61.7c0,161,0,322,0,483c0.1,34.3-10.2,68.6-29.1,97.2
		c-24.4,37.2-63.2,64.7-106.5,74.9c-15.6,3.8-31.8,5.2-47.9,4.9c-158,0-316,0-474,0c-16.9,0.2-33.8-1.8-50-6.2
		c-33.1-9-63.4-27.9-86.1-53.7c-22.2-25-37.1-56.5-42.2-89.6c-3.2-19.4-1.9-39-2.2-58.5c0-143.7,0-287.4,0-431c0.1-14-0.5-28,1.1-42
		c3.9-35.3,18.9-69.3,42.3-96C93.3,31,135.9,8.9,180.6,4.8 M182.6,51.9c-32.1,3.6-62.5,19.8-83.5,44.2c-20.3,23.3-31.7,54-31.6,84.9
		c0,162,0,324,0,486.1c0.4,30.9,12.3,61.4,33,84.4c20.4,23,49.1,38.4,79.5,42.4c10.6,1.6,21.4,1.1,32,1.2c156.3,0,312.7,0,469,0
		c24.8,0.1,49.6-7.1,70.4-20.5c24-15.3,42.7-38.7,52.3-65.4c5.2-14.4,7.8-29.7,7.7-45c0-161.4,0-322.7,0-484.1
		c-0.1-30.1-11.2-59.9-30.7-82.8c-20.2-24.1-49.5-40.4-80.7-44.8c-11.3-1.8-22.8-1.3-34.1-1.3c-156,0-312,0-468,0
		C192.8,51,187.7,51.3,182.6,51.9z"/>
	<path d="M418.7,220.8c3.6-7.7,11.8-13,20.3-12.9c8.5-0.3,16.9,4.9,20.6,12.5c1.8,3.4,2.1,7.2,3.2,10.8
		c12.8,41.2,25.5,82.5,38.2,123.7c44,0,88,0,132,0c9.5,0.1,18.3,7.1,20.8,16.2c2.5,8.4-0.5,18-7.2,23.5
		c-11.9,8.3-23.1,17.4-34.7,26.1c-24.4,18.6-48.8,37.3-73.2,55.9c12.5,40.4,25,80.8,37.4,121.2c0.9,4.1,3,7.7,4.4,11.6
		c3.2,10.6-2.8,22.8-12.9,27.2c-7.8,3.7-17.6,2.3-24-3.4c-6.1-6.6-13.9-11.3-20.8-17c-27.8-21.2-55.6-42.5-83.4-63.8
		c-33,25.2-66,50.5-99.1,75.7c-3.5,2.5-6.1,6.2-10.1,8c-7.6,4-17.5,3-24.2-2.4c-6.8-5.3-9.9-14.6-8-23
		c14.1-44.7,27.8-89.6,41.7-134.4c-33.1-25.3-66.1-50.5-99.2-75.8c-4.1-3.3-8.9-5.9-11.9-10.3c-4.7-6.5-5.4-15.5-1.9-22.7
		c3.5-7.4,11.2-12.6,19.4-12.8c43.8,0,87.7,0,131.5,0c12.8-41.4,25.6-82.9,38.4-124.3C416.8,227.4,417.1,223.9,418.7,220.8
		 M417.4,378.2c-1.1,3.6-1.7,7.3-3.6,10.6c-4.2,7.6-13.1,12.2-21.8,11.3c-26.2-0.2-52.3,0-78.5-0.1c22.2,17,44.4,33.9,66.6,50.9
		c8.1,6.3,10.6,18.2,6.2,27.4c-8.2,25.4-15.8,51-23.8,76.5c20.1-15.4,40.2-30.7,60.2-46.1c9.2-7.9,24.2-7.9,33.4,0
		c19.8,15.2,39.7,30.3,59.5,45.5c-7.3-23.7-14.6-47.4-22-71.1c-1.5-4-4-7.8-4.1-12.2c-0.8-7.8,2.9-15.7,9.2-20.3
		c22.1-16.9,44.3-33.8,66.4-50.7c-27.4,0.1-54.8-0.1-82.2,0.1c-6.9-0.4-13.4-4.2-17.2-10c-2.6-3.8-3.5-8.5-4.9-12.8
		c-7.2-23.3-14.5-46.7-21.6-70C432,331,424.6,354.6,417.4,378.2z"/>
</g>
</svg>
