<?xml version="1.0" encoding="utf-8"?>
<!-- Generator: Adobe Illustrator 18.0.0, SVG Export Plug-In . SVG Version: 6.00 Build 0)  -->
<!DOCTYPE svg PUBLIC "-//W3C//DTD SVG 1.1//EN" "http://www.w3.org/Graphics/SVG/1.1/DTD/svg11.dtd">
<svg version="1.1" id="Layer_1" xmlns="http://www.w3.org/2000/svg" xmlns:xlink="http://www.w3.org/1999/xlink" x="0px" y="0px"
	 viewBox="0 0 919 846" enable-background="new 0 0 919 846" xml:space="preserve">
<g id="_x23_ffffffff">
</g>
<g id="_x23_000000ff">
	<path d="M178.6,4.8C189,3.8,199.5,4,210,4c154,0,308,0,462,0c9.4-0.1,18.8,0.1,28,1.2c32.7,3.7,64.3,17,89.9,37.6
		c23.9,19.1,42.8,44.5,54.1,73c8.4,21,12.5,43.6,12.5,66.2c0,161,0,322,0,483c0.1,37-11.9,73.9-33.7,103.8
		c-27.2,37.7-69.8,64-115.8,71c-16.9,2.9-34,2-51,2.2c-153,0-306.1,0-459.1,0c-18.8,0.1-37.6-2.7-55.4-8.4
		c-31.3-10-59.7-29-80.9-54.1c-21.5-25.2-35.7-56.6-40.3-89.4c-2.7-17.9-1.5-36.1-1.8-54.1c0-151.7,0-303.3,0-455
		c0-30.7,8.1-61.4,23.5-88c15.8-27.5,39.1-50.7,66.8-66.2C130.1,14.7,154.1,7.1,178.6,4.8 M429.9,209.1c-7.1,2.3-12.9,8.5-14.7,15.8
		c-1.4,6.9-3.9,13.5-5.9,20.2c-11.3,36.6-22.6,73.2-33.9,109.8c-43.8,0-87.7,0-131.5,0c-8.2,0.1-15.9,5.5-19.4,12.9
		c-3.5,7.2-2.7,16.2,1.9,22.6c3,4.4,7.8,6.9,11.8,10.2c33.1,25.3,66.2,50.6,99.3,75.9c-13.9,44.8-27.5,89.7-41.6,134.4
		c-2,8.6,1.4,18.2,8.6,23.5c6.8,5.2,16.7,5.9,24.2,1.7c3.5-1.8,5.9-5,9-7.3c33.2-25.3,66.4-50.7,99.6-76.1
		c31.4,23.9,62.7,47.9,94,71.8c2.8,2.2,5.9,4.1,8.2,6.9c5.4,6.2,14.5,8.9,22.4,6.7c11.1-2.8,19.1-14.7,17-26.1
		c-0.4-3.6-2.5-6.7-3.7-10.1c-12.9-41.7-25.8-83.4-38.6-125.1c33.8-25.9,67.6-51.7,101.4-77.5c2.7-2,5.7-3.5,8-6
		c5-5,7.4-12.4,6.2-19.3c-1.2-8.3-7.5-15.5-15.5-18c-3.5-1.2-7.3-1-10.9-1c-42.3,0-84.7,0-127,0c-12.9-41.7-25.8-83.4-38.6-125.1
		c-1-4.9-2.2-9.9-5.6-13.7C449,209,438.6,206.1,429.9,209.1z"/>
	<path d="M437.2,307.3c6.9,22.6,13.9,45.2,20.9,67.8c1.6,4.6,2.5,9.5,4.8,13.8c3.6,6.4,10.6,10.8,18,11.3
		c27.4-0.3,54.8-0.1,82.2-0.1c-22.3,17.1-44.7,34.1-67,51.2c-6.2,4.8-9.6,13-8.5,20.7c0.3,4.1,2.7,7.5,4,11.2
		c7.3,23.7,14.6,47.4,21.9,71.1c-17.9-13.8-35.8-27.4-53.8-41.1c-5-3.7-9.7-8.4-16.1-9.6c-7.2-1.3-15.3-0.7-21.3,3.9
		c-20.7,15.8-41.4,31.6-62,47.4c8.6-27.3,16.7-54.7,25.5-81.9c1.4-6.4-0.3-13.4-4.4-18.5c-2.1-2.7-4.9-4.6-7.5-6.6
		c-20.8-15.9-41.7-31.9-62.5-47.8c27.5,0,55-0.1,82.5,0.1c7.8-0.6,15-5.6,18.4-12.6c1.4-2.6,1.9-5.6,2.7-8.5
		C422.5,355.1,430,331.2,437.2,307.3z"/>
</g>
</svg>
