<?xml version="1.0" encoding="utf-8"?>
<!-- Generator: Adobe Illustrator 18.0.0, SVG Export Plug-In . SVG Version: 6.00 Build 0)  -->
<!DOCTYPE svg PUBLIC "-//W3C//DTD SVG 1.1//EN" "http://www.w3.org/Graphics/SVG/1.1/DTD/svg11.dtd">
<svg version="1.1" id="Layer_1" xmlns="http://www.w3.org/2000/svg" xmlns:xlink="http://www.w3.org/1999/xlink" x="0px" y="0px"
	 viewBox="0 0 512 512" enable-background="new 0 0 512 512" xml:space="preserve">
<path d="M480,0v32h-32V0h-32v85.3H96V0H64v32H32V0H0v512h32v-64h32v64h32v-86h320v86h32v-64h32v64h32V0H480z M64,416H32v-64h32V416z
	 M64,320H32v-64h32V320z M64,224H32v-64h32V224z M64,128H32V64h32V128z M416,362.7H96V149.3h320V362.7z M480,416h-32v-64h32V416z
	 M480,320h-32v-64h32V320z M480,224h-32v-64h32V224z M480,128h-32V64h32V128z"/>
</svg>
