<?xml version="1.0" encoding="utf-8"?>
<!-- Generator: Adobe Illustrator 18.0.0, SVG Export Plug-In . SVG Version: 6.00 Build 0)  -->
<!DOCTYPE svg PUBLIC "-//W3C//DTD SVG 1.1//EN" "http://www.w3.org/Graphics/SVG/1.1/DTD/svg11.dtd">
<svg version="1.1" id="Layer_1" xmlns="http://www.w3.org/2000/svg" xmlns:xlink="http://www.w3.org/1999/xlink" x="0px" y="0px"
	 viewBox="0 0 1080 1080" enable-background="new 0 0 1080 1080" xml:space="preserve">
<g id="_x23_000000ff">
	<path d="M510.2,0h59.9c3.1,1.5,6.6,1.3,9.9,1.5c82.1,5.8,162.7,31,233.6,72.9C870.4,107.8,920.9,151.6,962,203
		c38.8,48.5,69.2,103.7,89.2,162.5c16.8,49.3,26.5,101.1,28.3,153.2l0.5-4.3v45.5c-1.6,23.2-3.3,46.3-7.3,69.2
		c-12.8,77.6-43,152.2-87.7,216.9c-39.8,57.8-91,107.8-149.7,146.2c-76.2,50-165.3,80.1-256.2,86.4c-3.1,0.1-6.2,0.4-9.1,1.4h-60.1
		c-3.4-1.5-7.3-1.2-10.9-1.5c-46.9-3.5-93.4-13.2-137.8-28.8c-57.8-20.2-112-50.5-159.7-88.9c-53.8-43.3-99.2-97-132.9-157.2
		c-41.4-73.8-65.1-157.5-68-242L0,565.8v-51.8l0.5,4.2c1.8-50.7,11.1-101.1,27-149.2c23-69.1,60.3-133.4,108.7-187.8
		c48.4-54.5,108-99.2,174-130.2c61-28.7,127.4-45.8,194.7-50C506.8,1,508.5,0.4,510.2,0 M501.5,70.9
		c-66.7,5.4-132.2,25.2-190.6,57.9c-62.6,34.9-117,84.3-157.8,143.3c-39.7,57.1-66.5,123.2-77.6,192c-9,55.4-8.1,112.4,2.8,167.4
		C92.8,706,126,776.7,173.8,835.7c42.5,52.7,96.6,96.1,157.3,126.2c51.8,25.7,108.4,41.7,165.9,46.8c52.2,4.7,105.1,0.8,156-11.7
		c73.6-18,142.6-54.5,199.2-104.8C909,842,953.4,777.9,980.2,707c35.1-92,40-195.1,14.2-290.1c-15-55.6-40.5-108.4-74.6-154.9
		c-42.4-57.9-98.2-106-161.8-139.2C679.7,81.5,589.6,63.6,501.5,70.9z"/>
	<path d="M532.5,336.7c7.7-1.5,15.9-0.8,22.9,2.8c7.8,3.9,14,10.9,16.8,19.2c3.6,10.3,1.7,22.4-5,31.1
		c-9.2,12.6-27.4,16.7-41.4,10.3c-7.9-3.5-14.3-10.2-17.4-18.2c-3.9-9.6-2.9-21.1,2.6-29.9C515.7,344.2,523.7,338.6,532.5,336.7z"/>
	<path d="M533.5,453.6c9-1.7,18.8,0.3,26.2,5.7c8.9,6.2,14.4,16.9,14.3,27.7c0,74,0,148,0,222c0.3,9.3-3.4,18.6-10,25.1
		c-6.8,6.8-16.5,10.5-26.1,9.8c-12.7-0.6-24.6-9.1-29.3-20.8c-1.9-4.4-2.7-9.3-2.6-14.1c0-74,0-148,0-222
		C505.7,471.2,517.9,456.4,533.5,453.6z"/>
</g>
</svg>
