<?xml version="1.0" encoding="utf-8"?>
<!-- Generator: Adobe Illustrator 18.0.0, SVG Export Plug-In . SVG Version: 6.00 Build 0)  -->
<!DOCTYPE svg PUBLIC "-//W3C//DTD SVG 1.1//EN" "http://www.w3.org/Graphics/SVG/1.1/DTD/svg11.dtd">
<svg version="1.1" id="Layer_1" xmlns="http://www.w3.org/2000/svg" xmlns:xlink="http://www.w3.org/1999/xlink" x="0px" y="0px"
	 viewBox="0 0 1080 1080" enable-background="new 0 0 1080 1080" xml:space="preserve">
<g id="_x23_000000ff">
	<path d="M509.9,0h60.5c0.5,0.2,1.4,0.7,1.9,1C657,5.8,740.5,31.2,813.6,74.4c60.2,35.4,113.5,82.7,155.8,138.2
		c59.3,77.3,96.9,171.1,107.3,268c1.3,12.1,2.4,24.2,2.5,36.3l0.8-3.9v49.5c-1.4,12.3-1.7,24.8-3.2,37.1
		c-9.1,83.8-38.3,165.3-84.6,235.8c-40.5,61.9-93.8,115.4-155.7,156.1c-77.9,51.4-169.4,82-262.5,87.5c-1.4,0.1-2.7,0.4-3.9,1.1
		h-60.5c-1.3-1.1-3-1.1-4.6-1.2c-101.1-6.1-200.2-41.9-282-101.6c-56.5-41-105-93-141.8-152.3C36.4,753.1,8.9,670.5,2,586.1
		c-0.9-7.4-0.6-14.9-2-22.2v-51l0.8,4.1c0.5-26.5,4-52.9,8.9-79c14.7-77.4,46.9-151.4,93.2-215.1C151,156.5,214.5,101.3,287,62.8
		C354.7,26.8,430.3,5.5,507,1.1C507.7,0.8,509.2,0.3,509.9,0 M501.6,70.9c-21.2,1.8-42.3,4.9-63.1,9.4
		c-77.9,17-151.1,54.5-210.7,107.4c-59.5,52.6-105.4,120.5-131.8,195.4C76.3,439,67.4,498.7,69.7,557.9
		c3.1,88.8,32.2,176.5,83,249.5c42.8,62,100.7,113.5,167.2,148.7c52,27.7,109.4,45.3,168,51.7c55.1,6,111.3,2.5,165.1-10.8
		c81.2-19.9,156.7-62.2,216.3-120.7c56.9-55.6,99.4-125.8,121.9-202c30.3-101.5,25.1-213.3-15-311.4
		c-25.9-63.9-66.1-121.8-116.7-168.5c-58.2-54-130.3-92.9-207.5-111.6C602.9,70.7,551.9,66.9,501.6,70.9z"/>
	<path d="M475.5,339.6c9.1-1.9,18.9,0.1,26.5,5.5c3.7,2.6,6.6,6,9.8,9.1C565,407.4,618,460.6,671.3,513.7
		c8.4,7.2,13.4,18.4,12.2,29.4c-0.7,7-3.5,13.9-8.2,19.2c-53.7,53.6-107.3,107.3-161,161c-5,4.7-9.3,10.2-15.4,13.6
		c-10.4,5.9-23.9,5.6-34.1-0.7c-10.6-6.3-17.1-18.8-16.2-31.1c0.5-8.4,4.3-16.4,10.2-22.2c47.2-47.2,94.4-94.4,141.5-141.5
		c1.3-0.9,0.5-2.5-0.5-3.1c-46.9-46.8-93.7-93.7-140.6-140.5c-7.5-7-11.6-17.4-10.7-27.6C449.6,355.4,461.1,342.4,475.5,339.6z"/>
</g>
</svg>
