<?xml version="1.0" encoding="utf-8"?>
<!-- Generator: Adobe Illustrator 18.0.0, SVG Export Plug-In . SVG Version: 6.00 Build 0)  -->
<!DOCTYPE svg PUBLIC "-//W3C//DTD SVG 1.1//EN" "http://www.w3.org/Graphics/SVG/1.1/DTD/svg11.dtd">
<svg version="1.1" id="Layer_1" xmlns="http://www.w3.org/2000/svg" xmlns:xlink="http://www.w3.org/1999/xlink" x="0px" y="0px"
	 viewBox="0 0 512 512" enable-background="new 0 0 512 512" xml:space="preserve">
<g id="_x23_000000ff">
	<path d="M252.7,0h6c3.1,0.4,6.2,0.5,9.3,0.6c39.1,1.7,77.7,12.7,111.8,31.7c45.5,25.2,83,64.5,105.8,111.2
		c10.5,21.3,17.9,44.1,22.1,67.4c2.6,13.9,3.4,27.9,4.3,42v5.4c-0.8,13.4-1.4,26.9-3.8,40.2c-6.1,36.4-20.2,71.4-41.1,101.9
		c-22.3,32.5-52.1,59.9-86.6,79c38.5,0,77.1,0,115.6,0c8.5,0,15.4,7.6,15.9,15.9l0-2.9v3.1c-0.2,9-7.9,16.3-16.7,16.6h-242
		c-13.9-0.9-27.8-1.5-41.5-4.1c-45.5-7.8-88.6-28.5-123.5-58.8C38.2,405.8,5.8,342.3,1.2,276c-0.1-2.7-0.2-8-0.2-10.7L0,271v-17.3
		c0.7-5.6,0.5-11.2,1-16.8c2-27.2,8.3-54.1,18.9-79.3c19.8-47.7,54.5-89,97.9-116.8C155.6,16.4,200.1,2.3,245,0.6
		C247.6,0.5,250.2,0.3,252.7,0 M261.1,49.1c-23.6,1.9-45,18.7-52.6,41c-5.4,15.4-4.5,33,2.8,47.6c7.1,14.7,20.3,26.2,35.8,31.4
		c12.7,4.3,26.7,4.3,39.4,0c16.1-5.3,29.7-17.6,36.7-33c5.4-11.8,6.9-25.3,4.3-38c-3-14.5-11.4-27.8-23.3-36.7
		C292,52.1,276.4,47.6,261.1,49.1 M122.1,146c-22.8,1.8-43.7,17.4-52,38.7c-6.2,15.5-5.8,33.5,1.3,48.6
		c5.8,12.7,16.1,23.2,28.6,29.5c13.4,6.8,29.4,8.4,43.9,4.3c16.5-4.4,30.8-16,38.6-31.2c6.4-12.1,8.4-26.4,5.9-39.8
		c-2.7-14.9-11.3-28.5-23.3-37.7C153,149.1,137.3,144.6,122.1,146 M374.5,168.7c-23,4.3-42.4,22.7-48,45.4
		c-4.1,15.9-1.5,33.4,7.2,47.3c8.3,13.6,21.9,23.8,37.4,27.7c14.4,3.8,30.1,2.1,43.3-4.7c15.1-7.5,26.7-21.5,31.5-37.7
		c3.7-12.3,3.3-25.7-1-37.8c-5.5-15.8-17.7-29.1-33-35.9C400.2,167.7,387,166.2,374.5,168.7 M248.4,219.7
		c-11.1,2.3-20.8,10-25.6,20.2c-5.2,10.6-4.8,23.8,1,34.1c5.3,9.7,15.1,16.8,26.1,18.6c13.7,2.6,28.5-3.8,36.3-15.4
		c8-11.3,8.8-27.2,2-39.3C280.7,224.1,263.8,216.1,248.4,219.7 M159.1,303.1c-10.6,1.6-20.7,6-29.1,12.6
		c-12.2,9.5-20.5,23.8-22.8,39.1c-2.2,13.9,0.7,28.4,7.8,40.5c7,12,18.1,21.4,31.1,26.4c14.2,5.5,30.4,5.5,44.5,0
		c14.2-5.4,26.2-16.3,33-29.9c7.2-14.2,8.6-31.3,3.7-46.4c-4.6-14.7-15-27.4-28.4-35C187,303.6,172.7,301,159.1,303.1 M311.5,315.7
		c-23.2,4.8-42.6,24-47.4,47.2c-4,17.6,0.4,36.9,11.6,51.1c9.1,11.8,22.6,20,37.2,22.8c12.7,2.4,26.2,0.8,37.9-4.8
		c14.3-6.7,25.9-19,31.5-33.8c5.2-13.4,5.5-28.8,0.6-42.4c-4.9-14.4-15.4-26.7-28.8-33.9C341.3,314.8,325.9,312.6,311.5,315.7z"/>
</g>
</svg>
