<?xml version="1.0" encoding="utf-8"?>
<!-- Generator: Adobe Illustrator 18.0.0, SVG Export Plug-In . SVG Version: 6.00 Build 0)  -->
<!DOCTYPE svg PUBLIC "-//W3C//DTD SVG 1.1//EN" "http://www.w3.org/Graphics/SVG/1.1/DTD/svg11.dtd">
<svg version="1.1" id="Layer_1" xmlns="http://www.w3.org/2000/svg" xmlns:xlink="http://www.w3.org/1999/xlink" x="0px" y="0px"
	 viewBox="0 0 512 512" enable-background="new 0 0 512 512" xml:space="preserve">
<g id="_x23_000000ff">
	<path d="M249,0h12.2c28.8,1.2,57.6,6.2,84.5,16.5c57.7,21.5,106.9,64.6,135.9,119c10.8,20.2,18.9,42,23.9,64.4
		c3.8,16.1,5.3,32.5,6.5,48.9v12.8c-1.1,24-4.5,47.9-11.8,70.8c-18.8,60.9-61.5,113.9-116.9,145.5c-33.5,19.3-71.6,30.8-110.2,33.3
		c-3.4,0.2-6.7,0.5-10,0.8h-12.2c-20.6-1-41.1-3.5-61-8.9c-47.5-12.6-91.1-39.4-123.9-76c-36.1-39.9-59-91.4-64.3-145
		c-0.7-6.2-0.9-12.5-1.6-18.8v-12.8c1-17.6,2.7-35.3,6.9-52.5C19.2,144.3,49.7,95.1,91.9,59.8c37-31.1,83-51.3,130.9-57.4
		C231.5,1.2,240.3,0.9,249,0 M235.6,34.1c-50,4.3-98.1,26.5-134.2,61.4c-30.1,28.9-51.9,66.4-61.8,107
		c-10.1,40.8-8.4,84.4,4.9,124.2c11.5,34.5,31.6,66,58,91c39.4,37.6,92.9,60,147.4,61.2c41.3,1.2,83-9.4,118.6-30.4
		c31.9-18.6,59-45.3,78.1-76.9c20.9-34.3,32.2-74.3,32.2-114.5c0.5-48.6-15.8-97-45.2-135.6c-23.1-30.5-54.1-54.8-89.1-70
		C310.4,36.6,272.6,30.7,235.6,34.1z"/>
	<path d="M247.4,128.7c14.6-4,31.2,3.4,38.3,16.8c6.5,11.5,5.3,26.8-3,37.2c-8.1,10.8-22.8,15.7-35.8,12.1
		c-11.5-2.9-21-12.3-24.1-23.8c-2.6-8.9-1.2-18.8,3.6-26.7C230.9,136.6,238.7,130.8,247.4,128.7z"/>
	<path d="M249.5,222.7c11.1-2.1,23,1.7,30.8,9.9c11.7,11.7,12.7,32.1,2.1,44.8c-9.6,12.6-28.3,16.7-42.3,9.2
		c-13.5-6.6-21.3-22.9-17.9-37.5C225,235.9,236.2,225,249.5,222.7z"/>
	<path d="M248.5,316.8c10.7-2.3,22.3,0.8,30.3,8.3c11.6,10.3,14.4,28.8,6.5,42.1c-7.3,13.2-24,20.2-38.6,16
		c-10.4-2.7-19.2-10.7-22.9-20.8c-3.5-9-2.9-19.4,1.6-28C230,325.5,238.7,318.9,248.5,316.8z"/>
</g>
</svg>
