<?xml version="1.0" encoding="utf-8"?>
<!-- Generator: Adobe Illustrator 18.0.0, SVG Export Plug-In . SVG Version: 6.00 Build 0)  -->
<!DOCTYPE svg PUBLIC "-//W3C//DTD SVG 1.1//EN" "http://www.w3.org/Graphics/SVG/1.1/DTD/svg11.dtd">
<svg version="1.1" id="Layer_1" xmlns="http://www.w3.org/2000/svg" xmlns:xlink="http://www.w3.org/1999/xlink" x="0px" y="0px"
	 viewBox="0 0 1080 1080" enable-background="new 0 0 1080 1080" xml:space="preserve">
<g id="_x23_000000ff">
	<path d="M510.1,0h60.1c3,1.6,6.5,1.2,9.8,1.5c82.1,5.9,162.8,31.1,233.6,72.9c63.9,37.6,119.9,88.5,163.4,148.5
		c62.8,86.1,99.2,191.3,102.4,297.8l0.5-4.2v41.4c-1.4,23.8-3.3,47.6-7.3,71.1c-13,78.8-43.9,154.5-89.7,219.9
		c-44.1,63.2-101.8,116.8-168.1,156c-69.7,41.4-148.8,66.6-229.6,73.2c-5.1,0.7-10.5,0.1-15.4,1.9h-60.1c-3.1-1.6-6.6-1.2-9.9-1.5
		c-46.7-3.4-93-12.9-137.2-28.3c-54.6-18.9-106-46.8-151.7-82C125.4,902.6,60.2,810.9,26.8,708.4C12,663.3,3.2,616.3,0.8,569
		c-0.2-2.5-0.6-7.5-0.8-10v-37.3c1.9-36.6,6.3-73.1,15-108.7c18.4-76.6,54-149,103.4-210.4c46.4-57.9,104.8-106.2,170.4-140.7
		c67-35.4,141.6-56.2,217.2-60.8C507.4,0.8,508.8,0.4,510.1,0 M496.1,71.4c-72.4,6.6-143.1,30.4-204.8,69
		c-61,37.9-113.1,90.1-151,151C101.8,353,77.9,423.7,71.4,496.1c-8.5,90.1,9.4,182.6,51.8,262.6c35.1,67,86.7,125.2,148.9,168.2
		c49.9,34.6,106.5,59.5,165.8,72.6c55.8,12.4,113.8,14.4,170.3,6.2c81.4-11.7,159.4-45.5,223.8-96.5c1-0.8,2-1.7,3-2.6
		c2-1,3.5-2.8,5.2-4.1c56.8-46.9,102.3-107.3,131.6-174.9c39.3-89.8,49-191.9,28.2-287.6c-13.7-63.6-41-124.2-79.3-176.8
		c-42.3-58.3-98.2-106.6-162-140.1C678.7,80.8,586.2,62.9,496.1,71.4z"/>
	<path d="M397.8,325.9c34.9-20.1,76.6-27.9,116.4-22c34,4.8,66.4,19.7,92.3,42.1c26.7,22.9,46.6,53.6,56.3,87.4
		c11.7,40.4,9,85-8,123.5c-4.4,10.2-9.9,19.8-16,29.1c34.5,34.6,69.1,69.1,103.6,103.6c6.6,6.3,10.2,15.5,9.4,24.6
		c-0.7,11.6-8.8,22.3-19.7,26.3c-9,3.5-19.6,2.3-27.6-3.1c-3.6-2.3-6.4-5.5-9.4-8.5c-32.9-32.9-65.8-65.8-98.7-98.7
		c-30.3,22.5-67.7,35.4-105.4,35.8c-35.4,0.8-70.9-9.3-100.7-28.4c-31.9-20.3-57.2-50.7-71.2-85.8c-15.6-38.4-17.2-82.2-4.9-121.7
		C327.5,386.4,358.1,348.4,397.8,325.9 M472.5,354.7c-24.2,2.8-47.5,12.7-66.4,28C379.6,404,362,436.1,358.5,470
		c-4,35.2,7.2,71.7,30.4,98.5c24,28.5,60.8,45.7,98.1,45.7c34.9,0.5,69.7-14,94-39.1c26.6-26.8,40.4-65.6,36.6-103.2
		c-3-34.8-20.9-67.8-48.2-89.5C542.6,360.6,506.8,350.4,472.5,354.7z"/>
</g>
</svg>
