<?xml version="1.0" encoding="utf-8"?>
<!-- Generator: Adobe Illustrator 18.0.0, SVG Export Plug-In . SVG Version: 6.00 Build 0)  -->
<!DOCTYPE svg PUBLIC "-//W3C//DTD SVG 1.1//EN" "http://www.w3.org/Graphics/SVG/1.1/DTD/svg11.dtd">
<svg version="1.1" id="Layer_1" xmlns="http://www.w3.org/2000/svg" xmlns:xlink="http://www.w3.org/1999/xlink" x="0px" y="0px"
	 viewBox="0 0 1080 1080" enable-background="new 0 0 1080 1080" xml:space="preserve">
<g id="_x23_000000ff">
	<path d="M510.2,0h59.9c3.5,1.5,7.3,1.3,11,1.6c81.8,6,162,31.2,232.6,72.8c56.5,33.3,106.9,77,147.9,128.2
		c37.5,46.8,67.2,99.9,87.3,156.4c18.4,51.6,28.8,106.1,30.7,160.9l0.4-4.3v43.9c-1.5,23.9-3.4,47.8-7.6,71.4
		c-13.1,77.8-43.7,152.5-88.7,217.2c-42,60.4-96.4,112.2-158.9,151c-71.3,44.4-153.1,71.8-236.8,79c-6,0.8-12.3,0.2-18.1,2.1h-60
		c-3.5-1.5-7.3-1.3-11-1.6c-47.4-3.5-94.3-13.4-139.1-29.3c-54-19.1-104.9-46.9-150.1-82c-54.4-42.1-100.7-94.7-135.6-154
		C29,736.7,3.4,648.9,0.4,560.2L0,564.5v-43.7c0.7-6.6,1-13.2,1.4-19.8c2.5-34.8,8.3-69.4,17.5-103.1
		c20.4-75.2,57.5-145.8,107.7-205.3c45-53.5,100.3-98.2,162.2-130.7C355.5,26.7,429.7,5.8,505,1.1C506.8,1,508.5,0.5,510.2,0
		 M382.6,335.7c-34.2,24.2-59.5,60.5-70.4,100.9c-10.8,40-7.6,83.8,9.5,121.6c14.5,32.5,38.7,60.5,68.7,79.5
		c32.6,20.8,72,30.8,110.6,27.8c34.3-2.3,67.8-14.9,95.4-35.4c34.2,34.3,68.5,68.5,102.7,102.7c5.6,5.9,13.6,9.5,21.8,9.5
		c9.3,0.2,18.5-4.2,24.3-11.5c9.6-11.4,8.8-29.8-1.8-40.3c-34.8-34.9-69.8-69.8-104.6-104.7c10.5-15.8,18.8-33,24-51.2
		c11.1-38.1,9.3-79.9-5.3-116.9c-11.8-30.3-32-57.3-57.7-77.3c-28.5-22.3-63.7-35.8-99.8-38.1C458.6,299.5,416.4,311.5,382.6,335.7z
		"/>
	<path d="M470.6,354.9c35.3-4.9,72.5,5.6,99.9,28.3c28.6,23.2,46.5,59,47.6,95.9c1.7,36.8-13.4,73.8-40.1,99.1
		c-25.8,25-62.3,38.3-98.1,35.9c-37.1-2-72.7-21.1-95.2-50.6c-21.5-27.5-30.9-64-25.6-98.5c4.7-32.8,22.6-63.5,48.8-83.8
		C426,367.1,447.9,357.9,470.6,354.9z"/>
</g>
</svg>
