<?xml version="1.0" encoding="utf-8"?>
<!-- Generator: Adobe Illustrator 18.0.0, SVG Export Plug-In . SVG Version: 6.00 Build 0)  -->
<!DOCTYPE svg PUBLIC "-//W3C//DTD SVG 1.1//EN" "http://www.w3.org/Graphics/SVG/1.1/DTD/svg11.dtd">
<svg version="1.1" id="Layer_1" xmlns="http://www.w3.org/2000/svg" xmlns:xlink="http://www.w3.org/1999/xlink" x="0px" y="0px"
	 viewBox="0 0 512 516" enable-background="new 0 0 512 516" xml:space="preserve">
<g id="_x23_000000ff">
	<path d="M390.3,0L390.3,0c7.6,0.2,14.9,5.4,16.5,13c1.4,5.7-0.8,11.8-5,15.7C367.4,63,333,97.4,298.6,131.7
		c37.8,0.1,75.6,0,113.4,0c22.1,0.3,44.1,8.2,61.4,22c22.2,17.5,36.7,44.6,38.3,72.9l0.3-3.9v197.5c-1.4,19.9-8.4,39.4-20.5,55.2
		c-17.5,23.3-45.3,38.7-74.5,40.2l4,0.3H95.8c-25.8-1.8-50.9-13.3-68.4-32.4c-15.9-16.9-25.8-39.4-27.1-62.6L0,425V227.6
		c1.5-21.1,9.2-41.8,22.7-58.1c16.6-20.8,41.8-34.5,68.2-37.1c8-0.9,16.1-0.5,24.1-0.6c34.2,0,68.4-0.1,102.6,0
		c-17.4-17.4-34.8-34.8-52.3-52.2c-3.3-3.3-5.2-8-4.9-12.6c0.4-7,5.7-13.2,12.5-14.8c5.7-1.5,11.9,0.7,15.9,5
		c23,23.1,46.2,46.1,69.2,69.2C298.2,86,338.6,45.9,378.8,5.7C381.8,2.4,386,0.6,390.3,0 M113.6,181.8
		c-21.6,3.3-41.4,16.3-53.1,34.7C52.2,229,48,244,47.9,259c0,43.7,0,87.3,0,131c0,15,4.2,30,12.5,42.6C71,448.9,88,461.2,107,465.8
		c7.5,1.9,15.3,2.4,23,2.3c57.6,0,115.3,0,173,0c9.4-0.1,18.9,0.5,28.1-1.5c16.8-3.2,32.3-12.2,43.5-25
		c12.5-14.1,19.5-32.8,19.4-51.6c0-43.7,0-87.3,0-131c0-17.9-6.2-35.8-17.6-49.6c-11.6-14.2-28.4-24.2-46.4-27.4
		c-8.9-1.7-18-1.2-27-1.2c-58.4,0-116.7,0-175,0C123.1,180.8,118.3,181.1,113.6,181.8 M438.5,260.6c-9.5,1.8-17.1,10.6-17.2,20.3
		c-0.4,8.5,4.9,16.7,12.6,20.2c7.2,3.3,16.2,2.2,22.3-2.9c5.7-4.5,8.7-12,7.7-19.3C462.7,267,450.1,258,438.5,260.6 M436.4,357.6
		c-8.7,2.6-15.3,11.3-15.1,20.4c-0.2,9.4,6.7,18.3,15.8,20.7c7.8,2.2,16.6-0.6,21.8-6.8c5-5.8,6.5-14.2,3.8-21.4
		C459.1,360.2,446.8,354,436.4,357.6z"/>
</g>
</svg>
