<?xml version="1.0" encoding="utf-8"?>
<!-- Generator: Adobe Illustrator 18.0.0, SVG Export Plug-In . SVG Version: 6.00 Build 0)  -->
<!DOCTYPE svg PUBLIC "-//W3C//DTD SVG 1.1//EN" "http://www.w3.org/Graphics/SVG/1.1/DTD/svg11.dtd">
<svg version="1.1" id="Layer_1" xmlns="http://www.w3.org/2000/svg" xmlns:xlink="http://www.w3.org/1999/xlink" x="0px" y="0px"
	 viewBox="0 0 899 847" enable-background="new 0 0 899 847" xml:space="preserve">
<g id="_x23_ffffffff">
</g>
<g id="_x23_000000ff">
	<path d="M176.5,4.8C187,3.8,197.5,4,208,4c156.7,0,313.3,0,470,0c32.8,0,65.4,9.4,93.2,26.9c26.9,16.8,49.2,41,63.7,69.2
		c12.9,24.9,19.6,52.9,19.6,80.9c0,159.7,0,319.4,0,479.1c0.2,15.1-1.1,30.2-4.6,44.9c-7.3,32-23.9,61.7-47.1,84.9
		c-33,33.5-79.8,52.7-126.8,52.1c-155.7,0-311.4,0-467,0c-11.4,0-22.8,0.3-34.1-1c-34.9-3.6-68.6-18-95.4-40.7
		C41.6,768.6,18,720.5,16.6,671c-0.3-21.7-0.1-43.3-0.1-65c0-141.7,0-283.3,0-425c0-31.2,8.4-62.4,24.2-89.3
		c16.6-28.4,41.3-52,70.4-67.3C131.4,13.7,153.7,7,176.5,4.8 M413.9,165.8c-1.7,4.2-1.4,8.8-1.4,13.2c0,24.8,0,49.6,0,74.5
		c-29.5,3.8-58,15.6-81.6,33.7c-18.9-18.8-37.7-37.7-56.6-56.6c-5.4-5.5-13.7-8-21.2-6.1c-7.7,1.8-14.2,8-16.3,15.7
		c-2.3,7.7,0.1,16.5,5.9,22.1c18.8,18.8,37.6,37.7,56.5,56.5c-18.4,23.8-30.4,52.4-34.2,82.3c-26,0-52,0-78,0
		c-3.9-0.1-7.9,0.7-11.4,2.6c-8.4,4.3-13.4,14.1-11.8,23.4c1.4,10.3,10.8,18.7,21.2,19c26.7,0.1,53.4,0,80,0
		c3.8,29.5,15.5,57.8,33.6,81.4c-18.7,18.7-37.4,37.4-56.1,56.1c-6.5,6.4-8.2,17-4.2,25.2c3.2,6.9,10.2,11.9,17.8,12.7
		c6.6,0.8,13.4-1.6,18.1-6.3c18.7-18.6,37.3-37.3,56-55.9c23.8,18.5,52.5,30.5,82.4,34.4c0,24.8,0,49.6,0,74.5
		c0,3.3-0.2,6.7,0.6,9.9c1.5,6.5,6,12.3,12.1,15.2c6.6,3.3,14.9,3,21.2-0.8c6.8-3.9,11.2-11.5,11.2-19.3c0-26.5,0-53,0-79.4
		c29.8-3.9,58.5-15.8,82.2-34.2c17.3,17.3,34.7,34.7,52,52c2.8,2.8,5.5,5.9,9.1,7.7c6.5,3.5,14.7,3.5,21.1-0.1
		c6.5-3.5,11.1-10.4,11.7-17.8c0.6-6.4-1.8-12.9-6.2-17.4c-18.6-18.7-37.4-37.4-56-56.1c18.1-23.6,29.9-52.1,33.7-81.6
		c26.3,0,52.7,0,79,0c8,0.2,15.8-4.3,19.8-11.2c4-6.8,4.1-15.7,0-22.5c-3.9-7-11.8-11.5-19.8-11.3c-26.3,0-52.7,0-79,0
		c-3.9-29.9-15.9-58.6-34.4-82.4c18.8-18.9,37.7-37.6,56.5-56.5c4-4,6.3-9.5,6.5-15.1c0.4-8.9-5.2-17.6-13.4-21.1
		c-8.2-3.7-18.5-1.8-24.7,4.6c-18.9,18.8-37.7,37.7-56.6,56.5c-23.6-18-51.9-29.8-81.4-33.6c0-27,0.1-54,0-81.1
		c-0.3-11.6-10.9-21.7-22.5-21.4C425.8,150.9,417,157.1,413.9,165.8z"/>
	<path d="M420.5,299.8c34.8-4.2,71.1,7.1,97.1,30.5c27,23.7,42.8,59.6,41.8,95.6c-0.4,36.2-17.9,71.6-46.1,94.3
		c-26.8,22-63.1,31.7-97.3,26.3c-35.1-5.2-67.4-26.4-86.2-56.4c-20.7-32.2-25-74.1-11.6-109.8c10.6-28.9,32.3-53.4,59.7-67.4
		C391.1,306,405.7,301.5,420.5,299.8 M426.5,376.8c-17.7,3-32.8,16.9-37.3,34.2c-4.1,14.6-0.6,31,9.1,42.6
		c8.8,10.9,22.7,17.5,36.7,17.4c13.4,0.3,26.8-5.3,35.8-15.2c9.6-10.2,14.2-24.9,12.2-38.8c-1.8-13.9-10.2-26.7-22.2-34
		C450.7,376.7,438.2,374.7,426.5,376.8z"/>
</g>
</svg>
