<?xml version="1.0" encoding="utf-8"?>
<!-- Generator: Adobe Illustrator 18.0.0, SVG Export Plug-In . SVG Version: 6.00 Build 0)  -->
<!DOCTYPE svg PUBLIC "-//W3C//DTD SVG 1.1//EN" "http://www.w3.org/Graphics/SVG/1.1/DTD/svg11.dtd">
<svg version="1.1" id="Layer_1" xmlns="http://www.w3.org/2000/svg" xmlns:xlink="http://www.w3.org/1999/xlink" x="0px" y="0px"
	 viewBox="0 0 905 848" enable-background="new 0 0 905 848" xml:space="preserve">
<g id="_x23_ffffffff">
</g>
<g id="_x23_000000ff">
	<path d="M188.5,5.8C199,4.7,209.5,5,220,5c151.3,0,302.7,0,454,0c11.3,0,22.7-0.3,34,1c32.1,3.3,63.1,15.7,88.7,35.3
		c24.9,18.9,44.6,44.6,56.5,73.5C862,136,866.5,159,866.5,182c0,160.7,0,321.3,0,482c0.3,29.9-7,59.9-21.3,86.2
		c-14.8,27.3-36.9,50.6-63.3,66.8c-27.4,16.9-59.6,26-91.8,26c-156,0-312,0-468,0c-11.9-0.1-23.9,0.3-35.8-1.1
		c-35.6-3.8-69.8-18.8-96.7-42.4C51.7,767,28.8,717.9,28.5,668c0-162,0-324,0-486c0-30.5,8-60.9,23.1-87.4
		c15.8-27.8,39.3-51.2,67.1-66.8C140.1,15.7,164.1,8.1,188.5,5.8 M190.5,52.9c-32.1,3.6-62.4,19.8-83.4,44.2
		c-20.3,23.3-31.7,54-31.6,84.9c0,161.3,0,322.7,0,484c-0.1,30.2,10.9,60.3,30.3,83.4c20.5,24.6,50.3,41.2,82.1,45.4
		c10.6,1.6,21.4,1.2,32.1,1.2c150,0,300,0,450,0c14-0.1,28.2,0.7,42-2c20.1-3.5,39.4-11.9,55.7-24.3c23.2-17.5,40.4-43,47.6-71.1
		c3.1-11.9,4.4-24.3,4.2-36.6c0-160.4,0-320.7,0-481c-0.1-34.1-14.5-67.8-38.9-91.6C756.8,65.8,723.6,52,690,52c-161,0-322,0-483,0
		C201.5,52,196,52.2,190.5,52.9z"/>
	<path d="M435.8,155c6.7-4,15.6-4,22.3,0c6.7,3.8,11.3,11.3,11.3,19c0,26.8,0,53.6,0,80.4c29.5,3.8,57.8,15.6,81.4,33.6
		c18.9-18.8,37.7-37.7,56.5-56.5c5.7-5.9,14.8-8,22.6-5.5c7.6,2.4,13.6,9.1,15.1,16.9c1.5,7.2-0.9,15-6.1,20.2
		c-18.8,18.8-37.6,37.6-56.4,56.4c18.5,23.8,30.5,52.5,34.4,82.4c26.3,0,52.7,0,79,0c8-0.2,15.9,4.3,19.8,11.3c4,6.8,4,15.7,0,22.4
		c-3.9,7-11.8,11.5-19.8,11.3c-26.3,0-52.7,0-79,0c-3.8,29.5-15.6,58-33.7,81.6c18.6,18.7,37.4,37.4,56,56.1
		c5.7,5.7,7.8,14.5,5.3,22.2c-2.3,7.6-8.8,13.7-16.6,15.3c-7.4,1.7-15.6-0.8-20.8-6.3c-18.5-18.5-37-37-55.5-55.5
		c-23.8,18.4-52.5,30.4-82.3,34.2c0,26.8,0.1,53.6,0,80.4c-0.2,12-11.5,22.2-23.4,21.4c-11.3-0.2-21.3-10.1-21.5-21.4
		c-0.1-26.8,0-53.6,0-80.4c-29.9-3.9-58.6-15.9-82.5-34.4c-18.7,18.7-37.3,37.3-56,56c-5.2,5.1-13,7.4-20.1,5.9
		c-7.1-1.4-13.3-6.5-16.1-13.2c-2.7-6.3-2.3-13.9,1.2-19.9c1.7-3.1,4.4-5.5,7-8.1c17.5-17.5,35-35,52.6-52.5
		c-18-23.6-29.8-52-33.6-81.4c-26.7,0-53.4,0.1-80,0c-10.4-0.3-19.7-8.7-21.1-18.9c-1.6-9.3,3.4-19.2,11.8-23.5
		c3.5-1.9,7.5-2.7,11.4-2.6c26,0,52,0,77.9,0c3.9-29.8,15.8-58.5,34.2-82.2c-19-19-38-38-56.9-57c-5.3-5.3-7.4-13.5-5.6-20.7
		c1.6-6.9,6.7-12.8,13.2-15.4c6.4-2.7,14-2.2,20,1.4c3.1,1.8,5.6,4.6,8.1,7.1c17.7,17.7,35.4,35.4,53,53
		c23.6-18.1,52.1-29.9,81.6-33.7c0-26.8,0-53.6,0-80.4C424.6,166.2,429.1,158.8,435.8,155 M432.5,300.8c-15.3,1.8-30.3,6.4-44,13.7
		c-27.2,14.4-48.7,39.2-58.9,68.3c-12.9,35.7-8.2,77.2,12.6,108.9c18.6,29.1,49.8,49.9,83.9,55.5c34.8,6.1,71.9-3.6,99.2-26
		c28.5-22.8,46-58.7,46.2-95.3c0.7-35.7-15.1-71.2-41.9-94.7C503.5,308,467.3,296.6,432.5,300.8z"/>
	<path d="M438.5,377.8c11.4-2,23.7-0.2,33.7,5.9c12,7,20.5,19.5,22.7,33.2c2.3,13.8-1.8,28.4-11.1,38.9C475,466,461.6,472.1,448,472
		c-13.6,0.4-27.3-5.5-36.4-15.8c-10-11-14.3-26.8-11.2-41.4C404.1,396.3,419.9,380.9,438.5,377.8z"/>
</g>
</svg>
