<?xml version="1.0" encoding="utf-8"?>
<!-- Generator: Adobe Illustrator 18.0.0, SVG Export Plug-In . SVG Version: 6.00 Build 0)  -->
<!DOCTYPE svg PUBLIC "-//W3C//DTD SVG 1.1//EN" "http://www.w3.org/Graphics/SVG/1.1/DTD/svg11.dtd">
<svg version="1.1" id="Layer_1" xmlns="http://www.w3.org/2000/svg" xmlns:xlink="http://www.w3.org/1999/xlink" x="0px" y="0px"
	 viewBox="0 0 873 846" enable-background="new 0 0 873 846" xml:space="preserve">
<g id="_x23_ffffffff">
</g>
<g id="_x23_000000ff">
	<path d="M182.5,5.8C193,4.8,203.5,5,214,5c155.3,0,310.7,0,466,0c16.8-0.2,33.7,1.8,49.9,6.2c32.5,8.8,62.3,27.2,84.8,52.1
		c22.6,24.9,37.9,56.3,43.4,89.5c3.2,17.9,2.3,36.1,2.4,54.2c0,151,0,302,0,453c0.2,14-0.8,28-3.6,41.7c-6.6,32.6-22.9,63.2-46,87.1
		C778.1,823,731.3,843.1,684,843c-150,0-300,0-449.9,0c-21-0.4-42.2,1.2-63.1-2.3c-32.2-5.2-62.9-19.6-87.5-41.1
		c-24.3-21.1-42.8-49-52.6-79.7c-5.7-17.7-8.5-36.3-8.4-54.9c0-156.3,0-312.6,0-469c0-10.4-0.2-20.8,0.8-31.1
		c3.2-33.5,16.3-66,37.2-92.4C89.9,34.9,135,10.1,182.5,5.8 M184.6,52.9c-28.6,3.2-55.8,16.3-76.2,36.5c-21,20.5-34.7,48.3-38,77.5
		c-1.2,9.4-0.8,18.8-0.9,28.2c0,152.3,0,304.7,0,457c0,10.3-0.3,20.7,1.1,30.9c3.5,27.6,16.3,53.8,35.7,73.7
		c24,24.9,58.1,39.5,92.7,39.4c161.7,0,323.3,0,485,0c30,0,59.8-10.9,82.8-30.2c24.4-20.3,41-49.8,45.4-81.2
		c1.8-11.4,1.3-23,1.3-34.5c0-156,0-312,0-468c0.1-30.6-11.2-61.1-31.2-84.3c-20.2-23.8-49.3-40-80.3-44.3
		c-11.3-1.8-22.7-1.3-34-1.3c-156,0-312,0-468,0C194.8,52,189.7,52.3,184.6,52.9z"/>
	<path d="M421.5,202.9c46.6-4.2,94.5,6.8,134.5,31.2c36.2,21.9,66,54.2,84.6,92.2c18.1,36.5,25.7,78.1,21.9,118.7
		c-3.5,39.6-18,78.1-41.4,110.2c-23.2,32.1-55.2,57.8-91.6,73.6c-38.3,16.7-81.3,22.1-122.5,15.7c-36.7-5.6-71.8-20.6-101.2-43.2
		c-32-24.5-57.2-57.8-71.9-95.3c-21.8-55.1-20.3-118.9,4.2-172.8c16.6-36.9,43.6-69.1,76.9-92C346.4,219.4,383.5,206.1,421.5,202.9
		 M423.5,249.9c-23.4,2.3-46.3,9.4-66.9,20.7c-26.8,14.7-49.6,36.5-65.5,62.6c-17.2,28-26.1,61-25.6,93.8
		c0.4,34.8,11.5,69.4,31.5,97.9c19.8,28.5,48.2,50.8,80.6,63.3c35.8,13.9,76.1,15.5,112.9,4.7c29.3-8.6,56.2-25,77.2-47.1
		c20.6-21.4,35.6-48.2,43-76.9c9.7-37,6.9-77.2-8-112.5c-13.4-32-36.6-59.7-65.6-78.7C504,255.7,463.1,245.8,423.5,249.9z"/>
	<path d="M430.5,302.6c6.9-3.7,15.7-3.4,22.3,0.7c6.7,4.1,11,11.8,10.7,19.6c0,26.4,0,52.7,0,79c28.5,0,57,0,85.5,0
		c4.1,0,8.2-0.3,12.2,0.9c6.3,1.8,11.7,6.5,14.4,12.6c3,6.6,2.4,14.6-1.4,20.8c-4,6.6-11.4,10.8-19.1,10.8c-35.7,0-71.5,0-107.2,0
		c-5.6-0.7-11.6-0.3-16.8-3c-7.5-3.6-12.6-11.7-12.6-20c0-34,0-68,0-101.9C418.6,314,423.4,306.3,430.5,302.6z"/>
</g>
</svg>
