<?xml version="1.0" encoding="utf-8"?>
<!-- Generator: Adobe Illustrator 18.0.0, SVG Export Plug-In . SVG Version: 6.00 Build 0)  -->
<!DOCTYPE svg PUBLIC "-//W3C//DTD SVG 1.1//EN" "http://www.w3.org/Graphics/SVG/1.1/DTD/svg11.dtd">
<svg version="1.1" id="Layer_1" xmlns="http://www.w3.org/2000/svg" xmlns:xlink="http://www.w3.org/1999/xlink" x="0px" y="0px"
	 viewBox="0 0 899 846" enable-background="new 0 0 899 846" xml:space="preserve">
<g id="_x23_ffffffff">
</g>
<g id="_x23_000000ff">
	<path d="M197.5,4.8C208,3.7,218.5,4,229,4c151.3,0,302.7,0,454,0c11.3,0,22.7-0.3,34,1c32.1,3.3,63.2,15.7,88.8,35.3
		c25,19.1,44.9,44.9,56.7,74.1c8.7,21.4,13.1,44.5,13,67.6c0,161,0,322,0,483c0.1,34.8-10.5,69.6-30,98.5
		c-26.8,40.2-70.6,68.6-118.4,76.2c-17.2,3.1-34.7,2.2-52.1,2.3c-148.3,0-296.6,0-445,0c-11.3,0-22.7,0.3-34-1
		c-32.4-3.3-63.7-15.9-89.4-35.8c-24.8-19-44.4-44.7-56.1-73.7c-8.7-21.4-13.1-44.5-13-67.6c0-160,0-320.1,0-480.1
		c-0.2-20,2.8-40.1,9.1-59C57.3,92.8,77.5,64,104,42.8C130.6,21.4,163.5,8,197.5,4.8 M586.5,292.5c-2.7,2.3-4.7,5.2-6.8,8
		C516.4,381.4,453.2,462.2,390,543.1c-29.2-27.2-58.4-54.4-87.6-81.6c-2.6-2.4-5.1-5-8.3-6.7c-7.5-4.3-17.2-4.6-25-0.8
		c-8.1,3.8-14,12-15.1,21c-1.3,9.4,2.9,18.9,10.2,24.8c36.9,34.4,73.8,68.9,110.7,103.2c8.2,7.4,21,9.1,30.8,3.8
		c4.5-2.2,8-6,10.9-10c69.6-89.1,139.2-178.2,208.8-267.3c5.3-6.8,7.1-16.2,4.5-24.4c-2.8-9.5-11.2-17-21-18.7
		C601.1,284.8,592.6,287.1,586.5,292.5z"/>
</g>
</svg>
