<?xml version="1.0" encoding="utf-8"?>
<!-- Generator: Adobe Illustrator 18.0.0, SVG Export Plug-In . SVG Version: 6.00 Build 0)  -->
<!DOCTYPE svg PUBLIC "-//W3C//DTD SVG 1.1//EN" "http://www.w3.org/Graphics/SVG/1.1/DTD/svg11.dtd">
<svg version="1.1" id="Layer_1" xmlns="http://www.w3.org/2000/svg" xmlns:xlink="http://www.w3.org/1999/xlink" x="0px" y="0px"
	 viewBox="0 0 899 846" enable-background="new 0 0 899 846" xml:space="preserve">
<g id="_x23_ffffffff">
</g>
<g id="_x23_000000ff">
	<path d="M184.6,4.8C195,3.8,205.5,4,216,4C370,4,524,4,678,4c16.7-0.3,33.4,1,49.6,5.1c33.5,8.1,64.3,26.4,87.7,51.6
		c22.9,24.7,38.6,56,44.5,89.2c3.6,18.8,2.6,38,2.8,57.1c0,152.7,0,305.4,0,458c0.1,35-10.6,70-30.3,99c-25.1,37.4-65,64.6-109.2,74
		c-15.1,3.4-30.6,4.3-46,4c-158.7,0-317.3,0-476,0c-33,0-65.9-9.6-93.8-27.2c-27.1-17-49.4-41.6-63.8-70.1
		C31,720,24.5,692.5,24.5,665c0-154.3,0-308.7,0-463c0.1-13.6-0.5-27.3,1.1-40.9C29.5,126.2,44.2,92.6,67,66
		C96.4,31.5,139.4,8.9,184.6,4.8 M186.6,51.9c-33.2,3.7-64.6,21-85.7,46.9C82,121.7,71.4,151.3,71.5,181c0,156.7,0,313.4,0,470.1
		c0.1,9.7-0.3,19.5,0.9,29.1c3,26.6,14.7,52,32.6,71.9c20.3,22.6,48.8,37.8,78.9,41.8c11.3,1.7,22.7,1.1,34.1,1.2
		c150.7,0,301.3,0,452,0c11.4-0.1,22.9,0.4,34.2-1.4c31.4-4.4,60.7-21,81-45.3c19.5-23.1,30.4-53.1,30.3-83.3c0-161,0-322.1,0-483.1
		c0.2-22-5.4-44.1-16-63.4c-14.2-26-37.5-46.8-64.9-58c-16.3-6.7-34-9.9-51.6-9.6c-160.3,0-320.7,0-481,0
		C196.8,51,191.7,51.3,186.6,51.9z"/>
	<path d="M576.3,290.3c8.7-5.8,20.8-5.9,29.5-0.2c9.2,5.7,14.1,17.4,11.9,28c-0.8,4.2-2.6,8.1-5.2,11.4c-70.3,90-140.6,180-211,270
		c-7,9.1-20,12.7-30.7,8.6c-4.9-1.7-8.9-5.1-12.5-8.7c-36.4-33.9-72.8-67.8-109.1-101.8c-7.7-7.2-10.4-19.1-6.6-28.9
		c3.5-9.7,13-16.9,23.3-17.5c7.5-0.6,15.1,2.1,20.5,7.2c30.2,28.2,60.4,56.4,90.7,84.5c62.6-80.1,125.2-160.2,187.7-240.3
		C568.4,298.4,571.4,293.4,576.3,290.3z"/>
</g>
</svg>
