<?xml version="1.0" encoding="utf-8"?>
<!-- Generator: Adobe Illustrator 18.0.0, SVG Export Plug-In . SVG Version: 6.00 Build 0)  -->
<!DOCTYPE svg PUBLIC "-//W3C//DTD SVG 1.1//EN" "http://www.w3.org/Graphics/SVG/1.1/DTD/svg11.dtd">
<svg version="1.1" id="Layer_1" xmlns="http://www.w3.org/2000/svg" xmlns:xlink="http://www.w3.org/1999/xlink" x="0px" y="0px"
	 viewBox="0 0 889 846" enable-background="new 0 0 889 846" xml:space="preserve">
<g id="_x23_ffffffff">
</g>
<g id="_x23_000000ff">
	<path d="M190.5,4.8C200.9,3.7,211.5,4,222,4c150.7,0,301.3,0,452,0c17.1-0.1,34.3-0.3,51.1,3.2c35.3,6.7,68.3,24.6,93.2,50.4
		c26.6,27.2,44.1,63.3,48.8,101.1c1.9,13.7,1.3,27.5,1.4,41.3c0,145.3,0,290.7,0,436c0,11.3,0.1,22.7-0.1,34
		c-0.9,36.3-13.4,72.1-35.3,101c-26.5,35.6-66.9,60.6-110.6,68.2c-13.7,2.5-27.6,2.9-41.5,2.7c-152.7,0-305.3,0-457.9,0
		c-11.4,0-22.7,0.3-34-1c-34.5-3.5-67.8-17.6-94.4-39.8C59.5,772.3,36.2,729.4,31.5,684c-1.4-12-1-24-1-36.1c0-155,0-310,0-465
		c-0.2-24.1,4.4-48.3,13.8-70.5c13-31,35.1-58.2,62.9-77.2C131.7,18.2,160.7,7.7,190.5,4.8 M429.6,201.9c-34.9,3-69,14.4-98.6,33
		c-32.1,20.1-59,48.6-77.2,81.9c-18.4,33.5-27.9,71.9-27.2,110.2c0.5,42.3,13.5,84.3,37,119.4c20.4,30.8,48.7,56.5,81.4,73.8
		c34.5,18.4,74.1,27.3,113.2,25.6c38.2-1.5,76-13,108.4-33.3c32.4-20.2,59.5-48.8,77.8-82.3C662.5,497,672,459,671.5,421.1
		c-0.3-38.2-10.8-76.4-30.1-109.4c-19.1-32.8-46.6-60.5-79.3-79.8C522.5,208.3,475.4,197.8,429.6,201.9z"/>
	<path d="M431.6,248.9c38.1-3.9,77.5,5.1,110,25.5c29.3,18.2,53.1,45.2,67.3,76.7c15.4,33.8,19.5,72.6,11.8,108.9
		c-6.5,31-21.8,60.1-43.4,83.3c-20.5,22-46.7,38.6-75.4,47.6c-37.7,12-79.4,10.7-116.2-3.6c-32.4-12.5-60.8-34.8-80.6-63.3
		c-20.6-29.3-31.8-65.1-31.5-100.9c0-33.1,9.7-66.1,27.5-93.9c16.6-26,40.1-47.5,67.5-61.6C388.2,257.4,409.7,251,431.6,248.9
		 M437.9,302c-6.8,3.8-11.3,11.4-11.3,19.2c0,34.2-0.1,68.4,0,102.6c0.2,11.3,10.2,21.3,21.5,21.5c8.3,1.1,16.6,0.6,24.9,0.7
		c30,0,60.1,0,90.1,0c7.7,0.1,15.2-4.2,19.1-10.8c3.9-6.4,4.4-14.7,1-21.4c-2.9-6.1-8.8-10.8-15.4-12.2c-3.2-0.7-6.5-0.5-9.8-0.5
		c-28.8,0-57.7,0-86.5,0c0-26.6,0-53.2,0-79.8c0-7.9-4.6-15.5-11.4-19.3C453.3,298,444.6,298,437.9,302z"/>
</g>
</svg>
